<?xml version="1.0" encoding="UTF-8" standalone="no"?>
<svg
   xmlns:dc="http://purl.org/dc/elements/1.1/"
   xmlns:cc="http://creativecommons.org/ns#"
   xmlns:rdf="http://www.w3.org/1999/02/22-rdf-syntax-ns#"
   xmlns:svg="http://www.w3.org/2000/svg"
   xmlns="http://www.w3.org/2000/svg"
   xmlns:sodipodi="http://sodipodi.sourceforge.net/DTD/sodipodi-0.dtd"
   xmlns:inkscape="http://www.inkscape.org/namespaces/inkscape"
   height="18.600311"
   width="19.008377"
   id="svg2"
   version="1.1"
   inkscape:version="0.91 r"
   sodipodi:docname="github-black.svg">
  <metadata
     id="metadata10">
    <rdf:RDF>
      <cc:Work
         rdf:about="">
        <dc:format>image/svg+xml</dc:format>
        <dc:type
           rdf:resource="http://purl.org/dc/dcmitype/StillImage" />
        <dc:title></dc:title>
      </cc:Work>
    </rdf:RDF>
  </metadata>
  <defs
     id="defs8" />
  <sodipodi:namedview
     pagecolor="#ffffff"
     bordercolor="#666666"
     borderopacity="1"
     objecttolerance="10"
     gridtolerance="10"
     guidetolerance="10"
     inkscape:pageopacity="0"
     inkscape:pageshadow="2"
     inkscape:window-width="1680"
     inkscape:window-height="995"
     id="namedview6"
     showgrid="false"
     inkscape:snap-nodes="false"
     inkscape:snap-global="true"
     inkscape:snap-others="true"
     inkscape:zoom="83.4386"
     inkscape:cx="2.638218"
     inkscape:cy="17.494054"
     inkscape:window-x="0"
     inkscape:window-y="0"
     inkscape:window-maximized="1"
     inkscape:current-layer="svg2"
     fit-margin-top="0"
     fit-margin-left="0"
     fit-margin-right="0"
     fit-margin-bottom="0" />
  <path
     d="m 9.5053118,0 c -5.24629,0 -9.49991002,4.25362 -9.49991002,9.4999001 0,4.1979599 2.72173002,7.7581099 6.49697002,9.0140099 0.47489,0.087 0.64826,-0.20642 0.64826,-0.45691 0,-0.22614 -0.009,-0.97526 -0.0133,-1.76847 -2.6417,0.57403 -3.20008,-1.12022 -3.20008,-1.12022 -0.43254,-1.09704 -1.05471,-1.38927 -1.05471,-1.38927 -0.86336,-0.58911 0.0655,-0.57751 0.0655,-0.57751 0.95381,0.0661 1.45597,0.97875 1.45597,0.97875 0.84772,1.45189 2.22422,1.03209 2.76462,0.78857 0.0864,-0.6123 0.3322,-1.0321 0.60302,-1.26867 -2.10883,-0.24004 -4.32724,-1.05529 -4.32724,-4.6954599 0,-1.0379 0.37051,-1.8844301 0.97701,-2.5495001 -0.0968,-0.24121 -0.42386,-1.20779 0.0939,-2.51528 0,0 0.79669,-0.25513 2.6127,0.97411 0.75724,-0.21164 1.5696,-0.316 2.37729,-0.31949 0.8071202,0.003 1.6200302,0.10901 2.3784702,0.32064 1.81255,-1.23039 2.61039,-0.97411 2.61039,-0.97411 0.51953,1.30866 0.19251,2.27407 0.0951,2.51413 0.60881,0.66507 0.97644,1.5116201 0.97644,2.5495001 0,3.6494499 -2.22191,4.4530799 -4.33827,4.6884999 0.34211,0.29456 0.64477,0.87206 0.64477,1.75804 0,1.26984 -0.0128,2.2938 -0.0128,2.60691 0,0.25281 0.17278,0.54851 0.65405,0.45574 3.77237,-1.25822 6.49176,-4.81837 6.49176,-9.0140099 C 19.005222,4.25362 14.751602,0 9.5053118,0 Z"
     id="path4"
     inkscape:connector-curvature="0" />
  <path
     style="fill:#000000;fill-opacity:1;stroke:#000000;stroke-width:0.54237288;stroke-linecap:butt;stroke-linejoin:miter;stroke-miterlimit:4;stroke-dasharray:none;stroke-dashoffset:0;stroke-opacity:1"
     d="M 5.1371584,17.749912 C 3.4640598,16.86961 1.8684022,15.155249 1.0264814,13.333436 0.37026988,11.913475 0.26153568,11.342383 0.27173838,9.369387 0.28199238,7.386503 0.39289608,6.845298 1.0651642,5.497507 1.9850864,3.653208 3.9655641,1.704182 5.7602312,0.877001 6.7722325,0.410559 7.5493601,0.287096 9.4801574,0.286012 c 2.1178626,-0.0012 2.6424216,0.0977 3.9659766,0.747691 1.79978,0.883858 3.835881,2.958981 4.662003,4.751351 0.833898,1.809242 0.839742,5.618379 0.01137,7.414138 -0.725894,1.573615 -2.312593,3.353573 -3.878887,4.351334 -1.878439,1.196603 -2.184195,1.078812 -2.184195,-0.841451 0,-0.885206 -0.114395,-1.910345 -0.254211,-2.278089 -0.233359,-0.613782 -0.180007,-0.682545 0.650455,-0.838341 1.107207,-0.207713 2.192451,-1.028959 2.727818,-2.064244 0.517135,-1.000029 0.513245,-3.4296063 -0.0071,-4.427301 -0.22281,-0.427218 -0.405109,-1.304762 -0.405109,-1.950097 0,-0.645335 -0.09184,-1.230099 -0.2041,-1.299476 -0.112254,-0.06938 -0.691916,0.05353 -1.288135,0.273123 -1.45545,0.53606 -6.1363505,0.53606 -7.5918008,0 C 5.0880375,3.905055 4.5083765,3.782149 4.3961216,3.851527 4.2838667,3.920907 4.1876975,4.550126 4.1824123,5.249798 4.1771223,5.94947 3.9984004,6.827014 3.7852422,7.199895 3.2901441,8.0659787 3.270718,10.216991 3.7478142,11.344199 c 0.4753575,1.1231 1.1244908,1.676433 2.5074969,2.137437 0.989343,0.329782 1.0890419,0.439218 0.8900947,0.977023 C 6.7875164,15.426126 5.5465171,15.264968 4.5002055,14.11515 3.9403332,13.499892 3.3909174,13.165997 2.9383967,13.165997 l -0.6980991,0 0.7724722,0.962027 c 1.6751832,2.086252 1.9384158,2.29221 2.9296372,2.29221 0.9180426,0 0.9614793,0.04288 0.9614793,0.949153 0,1.115012 -0.263075,1.171674 -1.7667278,0.380525 z"
     id="path4144"
     inkscape:connector-curvature="0" />
  <path
     style="fill:#445867;fill-opacity:1;stroke:#445867;stroke-width:0.04793944;stroke-linecap:butt;stroke-linejoin:miter;stroke-miterlimit:4;stroke-dasharray:none;stroke-dashoffset:0;stroke-opacity:1"
     d="m 7.4687018,13.900908 c -0.016276,-0.04932 -0.063507,-0.128325 -0.1049569,-0.175574 -0.074623,-0.08506 -0.074775,-0.08576 -0.01544,-0.07102 0.032958,0.0082 0.1324795,0.02227 0.221158,0.03129 l 0.1612338,0.0164 -0.07734,0.09528 c -0.042537,0.05241 -0.094827,0.117332 -0.116201,0.144283 -0.038083,0.04802 -0.039454,0.04721 -0.068454,-0.04067 z"
     id="path4146"
     inkscape:connector-curvature="0" />
  <path
     style="fill:#445867;fill-opacity:1;stroke:#000000;stroke-width:0.02396972;stroke-linecap:butt;stroke-linejoin:miter;stroke-miterlimit:4;stroke-dasharray:none;stroke-dashoffset:0;stroke-opacity:1"
     d="m 7.1205926,16.640374 c 0,-0.0375 -0.092229,-0.208011 -0.1388488,-0.256705 -0.024002,-0.02507 -0.041681,-0.04717 -0.039286,-0.04911 0.00239,-0.0019 0.046151,-0.01165 0.097237,-0.02158 l 0.092883,-0.01805 0,0.184018 c 0,0.10121 -0.0027,0.184018 -0.00599,0.184018 -0.0033,0 -0.00599,-0.01016 -0.00599,-0.02258 z"
     id="path4150"
     inkscape:connector-curvature="0" />
  <path
     style="fill:#445867;fill-opacity:1;stroke:#445867;stroke-width:0.02396972;stroke-linecap:butt;stroke-linejoin:miter;stroke-miterlimit:4;stroke-dasharray:none;stroke-dashoffset:0;stroke-opacity:1"
     d="m 11.330462,13.785988 -0.08658,-0.09223 0.08664,-0.0082 c 0.04765,-0.0045 0.107828,-0.01143 0.133721,-0.01538 l 0.04708,-0.0072 -0.02772,0.04486 c -0.01525,0.02467 -0.03646,0.07309 -0.04714,0.107611 l -0.01942,0.06276 -0.08658,-0.09223 z"
     id="path4152"
     inkscape:connector-curvature="0" />
  <path
     style="fill:#445867;fill-opacity:1;stroke:#445867;stroke-width:0.02396972;stroke-linecap:butt;stroke-linejoin:miter;stroke-miterlimit:4;stroke-dasharray:none;stroke-dashoffset:0;stroke-opacity:1"
     d="m 4.2966131,6.562715 c 0.00718,-0.02484 0.055184,-0.250148 0.056131,-0.263458 3.601e-4,-0.0051 0.014135,0.02735 0.03061,0.07203 l 0.029955,0.08122 -0.056035,0.06559 c -0.059914,0.07013 -0.070229,0.07772 -0.060661,0.04462 z"
     id="path4154"
     inkscape:connector-curvature="0" />
  <path
     style="fill:#445867;fill-opacity:1;stroke:#445867;stroke-width:0.02396972;stroke-linecap:butt;stroke-linejoin:miter;stroke-miterlimit:4;stroke-dasharray:none;stroke-dashoffset:0;stroke-opacity:1"
     d="M 6.9947516,4.818542 C 6.9222432,4.770732 6.830559,4.711128 6.791009,4.686087 L 6.7191,4.640557 l 0.059924,0.0067 c 0.032958,0.0037 0.1300357,0.01487 0.2157275,0.02489 0.2275469,0.0266 0.6502892,0.0659 0.708961,0.0659 0.086238,0 0.067464,0.01836 -0.041525,0.04061 -0.057281,0.01169 -0.2001632,0.04509 -0.317516,0.07422 -0.1173528,0.02913 -0.2144301,0.05288 -0.2157275,0.05279 -0.0013,-9.3e-5 -0.061684,-0.03929 -0.1341922,-0.0871 z"
     id="path4156"
     inkscape:connector-curvature="0" />
  <path
     style="fill:#445867;fill-opacity:1;stroke:#445867;stroke-width:0.02396972;stroke-linecap:butt;stroke-linejoin:miter;stroke-miterlimit:4;stroke-dasharray:none;stroke-dashoffset:0;stroke-opacity:1"
     d="m 11.728772,4.868948 c -0.07251,-0.01908 -0.220734,-0.05401 -0.329389,-0.07762 -0.108656,-0.02361 -0.19909,-0.04447 -0.200965,-0.04634 -0.0019,-0.0019 0.05467,-0.0071 0.125647,-0.0116 0.165554,-0.01051 0.668673,-0.06242 0.824177,-0.08504 0.06592,-0.0096 0.129961,-0.01761 0.142322,-0.01781 0.01236,-2.09e-4 -0.0748,0.06164 -0.193689,0.137446 -0.118889,0.0758 -0.220686,0.137336 -0.226216,0.136738 -0.0055,-5.98e-4 -0.06938,-0.0167 -0.141887,-0.03577 z"
     id="path4158"
     inkscape:connector-curvature="0" />
  <path
     style="fill:#445867;fill-opacity:1;stroke:#445867;stroke-width:0.02396972;stroke-linecap:butt;stroke-linejoin:miter;stroke-miterlimit:4;stroke-dasharray:none;stroke-dashoffset:0;stroke-opacity:1"
     d="m 14.635533,6.499381 c -0.03458,-0.04109 -0.03673,-0.05788 -0.01506,-0.11774 l 0.01457,-0.04025 0.02168,0.09198 c 0.01193,0.05059 0.01911,0.09455 0.01597,0.09769 -0.0031,0.0031 -0.01986,-0.01111 -0.03716,-0.03167 z"
     id="path4160"
     inkscape:connector-curvature="0" />
  <path
     style="fill:#445867;fill-opacity:1;stroke:#445867;stroke-width:0.02396972;stroke-linecap:butt;stroke-linejoin:miter;stroke-miterlimit:4;stroke-dasharray:none;stroke-dashoffset:0;stroke-opacity:1"
     d="m 12.162761,18.498292 c -0.118201,-0.04084 -0.206062,-0.12131 -0.25619,-0.234634 -0.02825,-0.06386 -0.0544,-0.25134 -0.04197,-0.300873 0.0076,-0.03021 0.01236,-0.02236 0.04429,0.07265 0.0554,0.164851 0.113005,0.264593 0.208007,0.360135 0.04632,0.04658 0.0977,0.09349 0.114179,0.104239 0.04026,0.02626 0.01014,0.02559 -0.06832,-0.0015 z"
     id="path4162"
     inkscape:connector-curvature="0" />
  <path
     style="fill:#445867;fill-opacity:1;stroke:#445867;stroke-width:0.02396972;stroke-linecap:butt;stroke-linejoin:miter;stroke-miterlimit:4;stroke-dasharray:none;stroke-dashoffset:0;stroke-opacity:1"
     d="m 6.7995163,18.482665 c 0.1479489,-0.08154 0.2636461,-0.24345 0.3200005,-0.447814 l 0.023032,-0.08352 -0.0039,0.113856 c -0.00483,0.141189 -0.035339,0.226702 -0.1108252,0.31066 -0.058618,0.0652 -0.1683162,0.125734 -0.2502567,0.138102 l -0.047939,0.0072 0.069887,-0.03852 z"
     id="path4164"
     inkscape:connector-curvature="0" />
  <path
     style="fill:#000000;fill-opacity:1;stroke:#000000;stroke-width:0.02396972;stroke-linecap:butt;stroke-linejoin:miter;stroke-miterlimit:4;stroke-dasharray:none;stroke-dashoffset:0;stroke-opacity:1"
     d="M 6.2534263,18.519634 C 6.0383296,18.474458 5.7769954,18.368156 5.3235126,18.141378 4.8599625,17.909566 4.6157878,17.768834 4.2609484,17.528961 3.7568705,17.188202 3.2925304,16.800497 2.8225649,16.327969 2.0072425,15.5082 1.3261044,14.559896 0.85755672,13.592215 0.32548034,12.49333 0.11000164,11.770212 0.04229115,10.856291 -0.00538827,10.212739 -0.00545602,8.7836378 0.04215962,8.0817956 0.05564389,7.8830411 0.08632468,7.5658827 0.09636033,7.5215034 l 0.0060979,-0.026966 1.91627087,0 1.9162709,0 L 3.894314,7.608372 C 3.7910675,7.8972427 3.7187407,8.2913564 3.6843807,8.7523119 c -0.018605,0.2495883 -0.00764,0.9907705 0.018088,1.2230917 0.056431,0.5094944 0.156878,0.9431744 0.2963762,1.2796024 0.075133,0.181198 0.2197394,0.456453 0.3210951,0.611196 0.4195683,0.640568 0.9546516,0.999845 2.0441508,1.372528 0.3297616,0.112801 0.489031,0.172628 0.6119695,0.229876 0.1185605,0.05521 0.3048723,0.169848 0.3048723,0.187591 0,0.0061 0.02946,0.04978 0.065466,0.09704 0.036007,0.04726 0.077321,0.115894 0.09181,0.15252 0.014489,0.03663 0.033568,0.07511 0.042397,0.08551 0.039344,0.04637 0.011078,0.268965 -0.061823,0.486861 -0.136233,0.407192 -0.3946947,0.688903 -0.7393913,0.805903 -0.1688716,0.05732 -0.2294144,0.06633 -0.4411424,0.06568 -0.1565741,-4.85e-4 -0.2220688,-0.006 -0.3145413,-0.02641 C 5.4790019,15.225067 5.0285673,14.975483 4.6057328,14.59302 4.5416948,14.535096 4.3788274,14.373904 4.2438052,14.234814 3.8882535,13.868554 3.6676639,13.6934 3.3918458,13.558339 c -0.0791,-0.03873 -0.1869638,-0.08157 -0.2396972,-0.09519 -0.091547,-0.02365 -0.3535534,-0.04773 -0.3535534,-0.0325 0,0.0084 0.6560605,0.825602 0.9400193,1.170913 0.8331947,1.013215 1.2131778,1.367132 1.5947788,1.485381 0.1431325,0.04435 0.29294,0.05974 0.6521674,0.06699 0.3723254,0.0075 0.5477017,0.02047 0.6561942,0.04847 0.079507,0.02052 0.2069827,0.07728 0.2505665,0.111559 0.018178,0.0143 0.039562,0.02057 0.056174,0.01648 0.014753,-0.0036 0.023188,-0.0026 0.018744,0.0022 -0.00444,0.0049 0.010774,0.03355 0.033817,0.06374 0.023043,0.03019 0.057767,0.08633 0.077165,0.124753 0.019398,0.03843 0.037887,0.06987 0.041088,0.06987 0.0032,0 0.00582,-0.06421 0.00582,-0.142678 l 0,-0.142678 -0.050936,0.0044 c -0.044339,0.0038 -0.046279,0.0031 -0.014981,-0.0057 0.081492,-0.02296 0.076116,-0.03898 0.081125,0.241711 0.0025,0.140073 0.011772,0.370631 0.020604,0.512352 0.013248,0.212571 0.013373,0.312219 7.13e-4,0.569281 -0.00844,0.171384 -0.01955,0.314303 -0.024688,0.317599 -0.00514,0.0033 -0.026724,0.05845 -0.047967,0.12257 -0.044881,0.13546 -0.1295176,0.272941 -0.2060017,0.334622 -0.084569,0.0682 -0.169089,0.114326 -0.2356521,0.128601 -0.093054,0.01996 -0.2685571,0.01484 -0.3939205,-0.0115 l 5e-7,0 z"
     id="path4163"
     inkscape:connector-curvature="0" />
  <path
     style="fill:#000000;fill-opacity:1;stroke:#000000;stroke-width:0.02396972;stroke-linecap:butt;stroke-linejoin:miter;stroke-miterlimit:4;stroke-dasharray:none;stroke-dashoffset:0;stroke-opacity:1"
     d="m 7.0844789,16.500216 c -0.00399,-0.01041 -0.027,-0.04866 -0.051125,-0.08501 -0.04944,-0.07448 -0.044335,-0.08732 0.034848,-0.08765 l 0.044943,-1.83e-4 0,0.09588 c 0,0.08949 -0.011751,0.121036 -0.028666,0.07696 z"
     id="path4165"
     inkscape:connector-curvature="0" />
  <path
     style="fill:#000000;fill-opacity:1;stroke:#000000;stroke-width:0.02396972;stroke-linecap:butt;stroke-linejoin:miter;stroke-miterlimit:4;stroke-dasharray:none;stroke-dashoffset:0;stroke-opacity:1"
     d="M 7.453345,13.903442 C 7.429356,13.855652 7.38268,13.777318 7.3496215,13.729365 c -0.033059,-0.04795 -0.057234,-0.09006 -0.053724,-0.09357 0.00351,-0.0035 0.062253,0.0018 0.1305388,0.0119 0.068286,0.01005 0.1688193,0.02194 0.223408,0.02641 0.054589,0.0045 0.1015225,0.0118 0.1042973,0.01629 0.00644,0.01042 -0.2310082,0.299934 -0.245988,0.299934 -0.00616,0 -0.03082,-0.0391 -0.054809,-0.08689 z"
     id="path4167"
     inkscape:connector-curvature="0" />
  <path
     style="fill:#000000;fill-opacity:1;stroke:#000000;stroke-width:0.02396972;stroke-linecap:butt;stroke-linejoin:miter;stroke-miterlimit:4;stroke-dasharray:none;stroke-dashoffset:0;stroke-opacity:1"
     d="m 6.8086693,18.474817 c 0.1323277,-0.08562 0.2161467,-0.19496 0.2805472,-0.365954 0.058788,-0.156093 0.060789,-0.157453 0.055414,-0.03769 -0.00684,0.152426 -0.038998,0.231331 -0.1323074,0.32464 -0.074483,0.07448 -0.1724688,0.124792 -0.2430537,0.124792 -0.026963,0 -0.021427,-0.0064 0.0394,-0.04579 z"
     id="path4169"
     inkscape:connector-curvature="0" />
  <path
     style="fill:#000000;fill-opacity:1;stroke:#000000;stroke-width:0.02396972;stroke-linecap:butt;stroke-linejoin:miter;stroke-miterlimit:4;stroke-dasharray:none;stroke-dashoffset:0;stroke-opacity:1"
     d="m 12.170425,18.509402 c -0.152556,-0.04657 -0.267768,-0.180373 -0.29953,-0.347855 -0.01662,-0.08765 -0.01585,-0.219466 0.0013,-0.213765 0.0073,0.0024 0.03053,0.05008 0.05156,0.105866 0.06534,0.173353 0.111897,0.247243 0.227763,0.361467 0.08988,0.08861 0.102362,0.105329 0.07797,0.104464 -0.01598,-5.66e-4 -0.04253,-0.0051 -0.05901,-0.01018 z"
     id="path4171"
     inkscape:connector-curvature="0" />
  <path
     style="fill:#000000;fill-opacity:1;stroke:#000000;stroke-width:0.02396972;stroke-linecap:butt;stroke-linejoin:miter;stroke-miterlimit:4;stroke-dasharray:none;stroke-dashoffset:0;stroke-opacity:1"
     d="m 11.326609,13.792666 c -0.103916,-0.114155 -0.106651,-0.106135 0.04083,-0.119715 0.04285,-0.0039 0.09635,-0.01043 0.11889,-0.0144 l 0.04099,-0.0072 -0.0274,0.04433 c -0.01507,0.02438 -0.0395,0.07896 -0.05429,0.121278 l -0.02689,0.07694 -0.09214,-0.101214 z"
     id="path4173"
     inkscape:connector-curvature="0" />
  <path
     style="fill:#000000;fill-opacity:1;stroke:#000000;stroke-width:0.02396972;stroke-linecap:butt;stroke-linejoin:miter;stroke-miterlimit:4;stroke-dasharray:none;stroke-dashoffset:0;stroke-opacity:1"
     d="m 11.780917,4.8915716 c -0.04826,-0.014016 -0.234559,-0.05818 -0.5543,-0.131404 -0.05824,-0.013337 -0.02138,-0.026642 0.09588,-0.034614 0.172752,-0.011745 0.555559,-0.050727 0.780577,-0.079486 0.104677,-0.013379 0.192295,-0.022352 0.194706,-0.019941 0.01594,0.015943 -0.373403,0.2702709 -0.425839,0.2781659 -0.0171,0.00258 -0.05807,-0.00315 -0.09102,-0.012721 z"
     id="path4175"
     inkscape:connector-curvature="0" />
  <path
     style="fill:#000000;fill-opacity:1;stroke:#000000;stroke-width:0.02396972;stroke-linecap:butt;stroke-linejoin:miter;stroke-miterlimit:4;stroke-dasharray:none;stroke-dashoffset:0;stroke-opacity:1"
     d="m 14.632482,6.5020096 c -0.04118,-0.044459 -0.04079,-0.041817 -0.01797,-0.121762 0.01899,-0.066536 0.02644,-0.059241 0.04826,0.047211 0.02191,0.1068629 0.01512,0.123574 -0.03029,0.074551 z"
     id="path4177"
     inkscape:connector-curvature="0" />
  <path
     style="fill:#000000;fill-opacity:1;stroke:#000000;stroke-width:0.02396972;stroke-linecap:butt;stroke-linejoin:miter;stroke-miterlimit:4;stroke-dasharray:none;stroke-dashoffset:0;stroke-opacity:1"
     d="M 6.9330405,4.7885089 C 6.8308695,4.7225763 6.7392303,4.6640755 6.7293977,4.6585072 c -0.041758,-0.023648 0.00958,-0.023769 0.2112793,-4.963e-4 0.2731687,0.031519 0.7090337,0.072468 0.7713506,0.072468 0.045728,0 0.062096,0.013824 0.035691,0.030143 -0.012316,0.00761 -0.6101935,0.1504483 -0.6224072,0.1486969 -0.00358,-5.131e-4 -0.0901,-0.054878 -0.1922705,-0.1208103 z"
     id="path4179"
     inkscape:connector-curvature="0" />
  <path
     style="fill:#000000;fill-opacity:1;stroke:#000000;stroke-width:0.02396972;stroke-linecap:butt;stroke-linejoin:miter;stroke-miterlimit:4;stroke-dasharray:none;stroke-dashoffset:0;stroke-opacity:1"
     d="m 4.2860891,6.5731515 c 0.00302,-0.00824 0.01791,-0.075459 0.033093,-0.1493757 0.015183,-0.073917 0.031817,-0.1317913 0.036965,-0.1286095 0.010937,0.00676 0.058852,0.131162 0.058852,0.1527995 0,0.018825 -0.1056668,0.1401667 -0.1220602,0.1401667 -0.00679,0 -0.00987,-0.00674 -0.00685,-0.014981 z"
     id="path4181"
     inkscape:connector-curvature="0" />
</svg>
