<?xml version="1.0" encoding="UTF-8" standalone="no"?>
<svg
   xmlns:dc="http://purl.org/dc/elements/1.1/"
   xmlns:cc="http://creativecommons.org/ns#"
   xmlns:rdf="http://www.w3.org/1999/02/22-rdf-syntax-ns#"
   xmlns:svg="http://www.w3.org/2000/svg"
   xmlns="http://www.w3.org/2000/svg"
   xmlns:sodipodi="http://sodipodi.sourceforge.net/DTD/sodipodi-0.dtd"
   xmlns:inkscape="http://www.inkscape.org/namespaces/inkscape"
   height="18.600311"
   width="19.008377"
   id="svg2"
   version="1.1"
   inkscape:version="0.91 r"
   sodipodi:docname="github.svg">
  <metadata
     id="metadata10">
    <rdf:RDF>
      <cc:Work
         rdf:about="">
        <dc:format>image/svg+xml</dc:format>
        <dc:type
           rdf:resource="http://purl.org/dc/dcmitype/StillImage" />
        <dc:title></dc:title>
      </cc:Work>
    </rdf:RDF>
  </metadata>
  <defs
     id="defs8" />
  <sodipodi:namedview
     pagecolor="#ffffff"
     bordercolor="#666666"
     borderopacity="1"
     objecttolerance="10"
     gridtolerance="10"
     guidetolerance="10"
     inkscape:pageopacity="0"
     inkscape:pageshadow="2"
     inkscape:window-width="1680"
     inkscape:window-height="995"
     id="namedview6"
     showgrid="false"
     inkscape:snap-nodes="false"
     inkscape:snap-global="true"
     inkscape:snap-others="true"
     inkscape:zoom="83.4386"
     inkscape:cx="6.1483638"
     inkscape:cy="5.9450928"
     inkscape:window-x="0"
     inkscape:window-y="0"
     inkscape:window-maximized="1"
     inkscape:current-layer="svg2"
     fit-margin-top="0"
     fit-margin-left="0"
     fit-margin-right="0"
     fit-margin-bottom="0" />
  <path
     d="m 9.5053118,0 c -5.24629,0 -9.49991002,4.25362 -9.49991002,9.4999001 0,4.1979599 2.72173002,7.7581099 6.49697002,9.0140099 0.47489,0.087 0.64826,-0.20642 0.64826,-0.45691 0,-0.22614 -0.009,-0.97526 -0.0133,-1.76847 -2.6417,0.57403 -3.20008,-1.12022 -3.20008,-1.12022 -0.43254,-1.09704 -1.05471,-1.38927 -1.05471,-1.38927 -0.86336,-0.58911 0.0655,-0.57751 0.0655,-0.57751 0.95381,0.0661 1.45597,0.97875 1.45597,0.97875 0.84772,1.45189 2.22422,1.03209 2.76462,0.78857 0.0864,-0.6123 0.3322,-1.0321 0.60302,-1.26867 -2.10883,-0.24004 -4.32724,-1.05529 -4.32724,-4.6954599 0,-1.0379 0.37051,-1.8844301 0.97701,-2.5495001 -0.0968,-0.24121 -0.42386,-1.20779 0.0939,-2.51528 0,0 0.79669,-0.25513 2.6127,0.97411 0.75724,-0.21164 1.5696,-0.316 2.37729,-0.31949 0.8071202,0.003 1.6200302,0.10901 2.3784702,0.32064 1.81255,-1.23039 2.61039,-0.97411 2.61039,-0.97411 0.51953,1.30866 0.19251,2.27407 0.0951,2.51413 0.60881,0.66507 0.97644,1.5116201 0.97644,2.5495001 0,3.6494499 -2.22191,4.4530799 -4.33827,4.6884999 0.34211,0.29456 0.64477,0.87206 0.64477,1.75804 0,1.26984 -0.0128,2.2938 -0.0128,2.60691 0,0.25281 0.17278,0.54851 0.65405,0.45574 3.77237,-1.25822 6.49176,-4.81837 6.49176,-9.0140099 C 19.005222,4.25362 14.751602,0 9.5053118,0 Z"
     id="path4"
     inkscape:connector-curvature="0" />
  <path
     style="fill:#445867;fill-opacity:1;stroke:#445867;stroke-width:0.54237288;stroke-linecap:butt;stroke-linejoin:miter;stroke-miterlimit:4;stroke-dasharray:none;stroke-dashoffset:0;stroke-opacity:1"
     d="M 5.1371584,17.749912 C 3.4640598,16.86961 1.8684022,15.155249 1.0264814,13.333436 0.37026988,11.913475 0.26153568,11.342383 0.27173838,9.369387 0.28199238,7.386503 0.39289608,6.845298 1.0651642,5.497507 1.9850864,3.653208 3.9655641,1.704182 5.7602312,0.877001 6.7722325,0.410559 7.5493601,0.287096 9.4801574,0.286012 c 2.1178626,-0.0012 2.6424216,0.0977 3.9659766,0.747691 1.79978,0.883858 3.835881,2.958981 4.662003,4.751351 0.833898,1.809242 0.839742,5.618379 0.01137,7.414138 -0.725894,1.573615 -2.312593,3.353573 -3.878887,4.351334 -1.878439,1.196603 -2.184195,1.078812 -2.184195,-0.841451 0,-0.885206 -0.114395,-1.910345 -0.254211,-2.278089 -0.233359,-0.613782 -0.180007,-0.682545 0.650455,-0.838341 1.107207,-0.207713 2.192451,-1.028959 2.727818,-2.064244 0.517135,-1.000029 0.513245,-3.4296063 -0.0071,-4.427301 -0.22281,-0.427218 -0.405109,-1.304762 -0.405109,-1.950097 0,-0.645335 -0.09184,-1.230099 -0.2041,-1.299476 -0.112254,-0.06938 -0.691916,0.05353 -1.288135,0.273123 -1.45545,0.53606 -6.1363505,0.53606 -7.5918008,0 C 5.0880375,3.905055 4.5083765,3.782149 4.3961216,3.851527 4.2838667,3.920907 4.1876975,4.550126 4.1824123,5.249798 4.1771223,5.94947 3.9984004,6.827014 3.7852422,7.199895 3.2901441,8.0659787 3.270718,10.216991 3.7478142,11.344199 c 0.4753575,1.1231 1.1244908,1.676433 2.5074969,2.137437 0.989343,0.329782 1.0890419,0.439218 0.8900947,0.977023 C 6.7875164,15.426126 5.5465171,15.264968 4.5002055,14.11515 3.9403332,13.499892 3.3909174,13.165997 2.9383967,13.165997 l -0.6980991,0 0.7724722,0.962027 c 1.6751832,2.086252 1.9384158,2.29221 2.9296372,2.29221 0.9180426,0 0.9614793,0.04288 0.9614793,0.949153 0,1.115012 -0.263075,1.171674 -1.7667278,0.380525 z"
     id="path4144"
     inkscape:connector-curvature="0" />
  <path
     style="fill:#445867;fill-opacity:1;stroke:#445867;stroke-width:0.04793944;stroke-linecap:butt;stroke-linejoin:miter;stroke-miterlimit:4;stroke-dasharray:none;stroke-dashoffset:0;stroke-opacity:1"
     d="m 7.4687018,13.900908 c -0.016276,-0.04932 -0.063507,-0.128325 -0.1049569,-0.175574 -0.074623,-0.08506 -0.074775,-0.08576 -0.01544,-0.07102 0.032958,0.0082 0.1324795,0.02227 0.221158,0.03129 l 0.1612338,0.0164 -0.07734,0.09528 c -0.042537,0.05241 -0.094827,0.117332 -0.116201,0.144283 -0.038083,0.04802 -0.039454,0.04721 -0.068454,-0.04067 z"
     id="path4146"
     inkscape:connector-curvature="0" />
  <path
     style="fill:#445867;fill-opacity:1;stroke:#445867;stroke-width:0.02396972;stroke-linecap:butt;stroke-linejoin:miter;stroke-miterlimit:4;stroke-dasharray:none;stroke-dashoffset:0;stroke-opacity:1"
     d="m 7.1205926,16.640374 c 0,-0.0375 -0.092229,-0.208011 -0.1388488,-0.256705 -0.024002,-0.02507 -0.041681,-0.04717 -0.039286,-0.04911 0.00239,-0.0019 0.046151,-0.01165 0.097237,-0.02158 l 0.092883,-0.01805 0,0.184018 c 0,0.10121 -0.0027,0.184018 -0.00599,0.184018 -0.0033,0 -0.00599,-0.01016 -0.00599,-0.02258 z"
     id="path4150"
     inkscape:connector-curvature="0" />
  <path
     style="fill:#445867;fill-opacity:1;stroke:#445867;stroke-width:0.02396972;stroke-linecap:butt;stroke-linejoin:miter;stroke-miterlimit:4;stroke-dasharray:none;stroke-dashoffset:0;stroke-opacity:1"
     d="m 11.330462,13.785988 -0.08658,-0.09223 0.08664,-0.0082 c 0.04765,-0.0045 0.107828,-0.01143 0.133721,-0.01538 l 0.04708,-0.0072 -0.02772,0.04486 c -0.01525,0.02467 -0.03646,0.07309 -0.04714,0.107611 l -0.01942,0.06276 -0.08658,-0.09223 z"
     id="path4152"
     inkscape:connector-curvature="0" />
  <path
     style="fill:#445867;fill-opacity:1;stroke:#445867;stroke-width:0.02396972;stroke-linecap:butt;stroke-linejoin:miter;stroke-miterlimit:4;stroke-dasharray:none;stroke-dashoffset:0;stroke-opacity:1"
     d="m 4.2966131,6.562715 c 0.00718,-0.02484 0.055184,-0.250148 0.056131,-0.263458 3.601e-4,-0.0051 0.014135,0.02735 0.03061,0.07203 l 0.029955,0.08122 -0.056035,0.06559 c -0.059914,0.07013 -0.070229,0.07772 -0.060661,0.04462 z"
     id="path4154"
     inkscape:connector-curvature="0" />
  <path
     style="fill:#445867;fill-opacity:1;stroke:#445867;stroke-width:0.02396972;stroke-linecap:butt;stroke-linejoin:miter;stroke-miterlimit:4;stroke-dasharray:none;stroke-dashoffset:0;stroke-opacity:1"
     d="M 6.9947516,4.818542 C 6.9222432,4.770732 6.830559,4.711128 6.791009,4.686087 L 6.7191,4.640557 l 0.059924,0.0067 c 0.032958,0.0037 0.1300357,0.01487 0.2157275,0.02489 0.2275469,0.0266 0.6502892,0.0659 0.708961,0.0659 0.086238,0 0.067464,0.01836 -0.041525,0.04061 -0.057281,0.01169 -0.2001632,0.04509 -0.317516,0.07422 -0.1173528,0.02913 -0.2144301,0.05288 -0.2157275,0.05279 -0.0013,-9.3e-5 -0.061684,-0.03929 -0.1341922,-0.0871 z"
     id="path4156"
     inkscape:connector-curvature="0" />
  <path
     style="fill:#445867;fill-opacity:1;stroke:#445867;stroke-width:0.02396972;stroke-linecap:butt;stroke-linejoin:miter;stroke-miterlimit:4;stroke-dasharray:none;stroke-dashoffset:0;stroke-opacity:1"
     d="m 11.728772,4.868948 c -0.07251,-0.01908 -0.220734,-0.05401 -0.329389,-0.07762 -0.108656,-0.02361 -0.19909,-0.04447 -0.200965,-0.04634 -0.0019,-0.0019 0.05467,-0.0071 0.125647,-0.0116 0.165554,-0.01051 0.668673,-0.06242 0.824177,-0.08504 0.06592,-0.0096 0.129961,-0.01761 0.142322,-0.01781 0.01236,-2.09e-4 -0.0748,0.06164 -0.193689,0.137446 -0.118889,0.0758 -0.220686,0.137336 -0.226216,0.136738 -0.0055,-5.98e-4 -0.06938,-0.0167 -0.141887,-0.03577 z"
     id="path4158"
     inkscape:connector-curvature="0" />
  <path
     style="fill:#445867;fill-opacity:1;stroke:#445867;stroke-width:0.02396972;stroke-linecap:butt;stroke-linejoin:miter;stroke-miterlimit:4;stroke-dasharray:none;stroke-dashoffset:0;stroke-opacity:1"
     d="m 14.635533,6.499381 c -0.03458,-0.04109 -0.03673,-0.05788 -0.01506,-0.11774 l 0.01457,-0.04025 0.02168,0.09198 c 0.01193,0.05059 0.01911,0.09455 0.01597,0.09769 -0.0031,0.0031 -0.01986,-0.01111 -0.03716,-0.03167 z"
     id="path4160"
     inkscape:connector-curvature="0" />
  <path
     style="fill:#445867;fill-opacity:1;stroke:#445867;stroke-width:0.02396972;stroke-linecap:butt;stroke-linejoin:miter;stroke-miterlimit:4;stroke-dasharray:none;stroke-dashoffset:0;stroke-opacity:1"
     d="m 12.162761,18.498292 c -0.118201,-0.04084 -0.206062,-0.12131 -0.25619,-0.234634 -0.02825,-0.06386 -0.0544,-0.25134 -0.04197,-0.300873 0.0076,-0.03021 0.01236,-0.02236 0.04429,0.07265 0.0554,0.164851 0.113005,0.264593 0.208007,0.360135 0.04632,0.04658 0.0977,0.09349 0.114179,0.104239 0.04026,0.02626 0.01014,0.02559 -0.06832,-0.0015 z"
     id="path4162"
     inkscape:connector-curvature="0" />
  <path
     style="fill:#445867;fill-opacity:1;stroke:#445867;stroke-width:0.02396972;stroke-linecap:butt;stroke-linejoin:miter;stroke-miterlimit:4;stroke-dasharray:none;stroke-dashoffset:0;stroke-opacity:1"
     d="m 6.7995163,18.482665 c 0.1479489,-0.08154 0.2636461,-0.24345 0.3200005,-0.447814 l 0.023032,-0.08352 -0.0039,0.113856 c -0.00483,0.141189 -0.035339,0.226702 -0.1108252,0.31066 -0.058618,0.0652 -0.1683162,0.125734 -0.2502567,0.138102 l -0.047939,0.0072 0.069887,-0.03852 z"
     id="path4164"
     inkscape:connector-curvature="0" />
</svg>
