<?xml version="1.0" encoding="UTF-8"?>
<svg xmlns="http://www.w3.org/2000/svg" xmlns:xlink="http://www.w3.org/1999/xlink" width="19pt" height="19pt" viewBox="0 0 19 19" version="1.1">
<g id="surface1">
<path style=" stroke:none;fill-rule:nonzero;fill:rgb(0%,0%,0%);fill-opacity:1;" d="M 17.101562 0 L 1.898438 0 C 0.855469 0 0 0.855469 0 1.898438 L 0 17.101562 C 0 18.144531 0.855469 19 1.898438 19 L 17.101562 19 C 18.144531 19 19 18.144531 19 17.101562 L 19 1.898438 C 19 0.855469 18.144531 0 17.101562 0 Z M 5.699219 16.148438 L 2.851562 16.148438 L 2.851562 7.601562 L 5.699219 7.601562 Z M 4.273438 5.984375 C 3.324219 5.984375 2.566406 5.226562 2.566406 4.273438 C 2.566406 3.324219 3.324219 2.566406 4.273438 2.566406 C 5.226562 2.566406 5.984375 3.324219 5.984375 4.273438 C 5.984375 5.226562 5.226562 5.984375 4.273438 5.984375 Z M 16.148438 16.148438 L 13.300781 16.148438 L 13.300781 11.113281 C 13.300781 10.355469 12.636719 9.691406 11.875 9.691406 C 11.113281 9.691406 10.449219 10.355469 10.449219 11.113281 L 10.449219 16.148438 L 7.601562 16.148438 L 7.601562 7.601562 L 10.449219 7.601562 L 10.449219 8.738281 C 10.925781 7.980469 11.96875 7.410156 12.824219 7.410156 C 14.628906 7.410156 16.148438 8.929688 16.148438 10.734375 Z M 16.148438 16.148438 "/>
</g>
</svg>
