<svg id="Icons" height="512" viewBox="0 0 74 74" width="512" xmlns="http://www.w3.org/2000/svg"><path d="m71 42.86a1 1 0 0 1 -1-1v-2.97a1 1 0 0 1 2 0v2.97a1 1 0 0 1 -1 1z"/><path d="m69 72h-64a3 3 0 0 1 -3-3v-64a3 3 0 0 1 3-3h64a3 3 0 0 1 3 3v26.89a1 1 0 0 1 -2 0v-26.89a1 1 0 0 0 -1-1h-64a1 1 0 0 0 -1 1v64a1 1 0 0 0 1 1h64a1 1 0 0 0 1-1v-10.24a1 1 0 1 1 2 0v10.24a3 3 0 0 1 -3 3z"/><path d="m71 52.76a1 1 0 0 1 -1-1v-2.9a1 1 0 0 1 2 0v2.9a1 1 0 0 1 -1 1z"/><path d="m71 19h-68a1 1 0 0 1 0-2h68a1 1 0 0 1 0 2z"/><path d="m62.5 13.817a3.317 3.317 0 1 1 3.312-3.317 3.321 3.321 0 0 1 -3.312 3.317zm0-4.634a1.317 1.317 0 1 0 1.312 1.317 1.318 1.318 0 0 0 -1.312-1.317z"/><path d="m52.833 13.817a3.317 3.317 0 1 1 3.318-3.317 3.321 3.321 0 0 1 -3.318 3.317zm0-4.634a1.317 1.317 0 1 0 1.318 1.317 1.318 1.318 0 0 0 -1.318-1.317z"/><path d="m43.171 13.817a3.317 3.317 0 1 1 3.318-3.317 3.321 3.321 0 0 1 -3.318 3.317zm0-4.634a1.317 1.317 0 1 0 1.318 1.317 1.318 1.318 0 0 0 -1.318-1.317z"/><path d="m37 62a17.5 17.5 0 1 1 17.5-17.5 17.521 17.521 0 0 1 -17.5 17.5zm0-33a15.5 15.5 0 1 0 15.5 15.5 15.517 15.517 0 0 0 -15.5-15.5z"/><path d="m50.3 55.26a1 1 0 0 1 -.809-.411 15.464 15.464 0 0 0 -24.984 0 1 1 0 1 1 -1.616-1.179 17.465 17.465 0 0 1 28.216 0 1 1 0 0 1 -.807 1.59z"/><path d="m37 48.5a6.75 6.75 0 1 1 6.75-6.75 6.758 6.758 0 0 1 -6.75 6.75zm0-11.5a4.75 4.75 0 1 0 4.75 4.75 4.756 4.756 0 0 0 -4.75-4.75z"/></svg>